<svg width="147" height="24" viewBox="0 0 147 24" fill="none" xmlns="http://www.w3.org/2000/svg">
<path d="M20.4491 20.4495H16.8931V14.8805C16.8931 13.5525 16.8694 11.843 15.0436 11.843C13.1915 11.843 12.9081 13.2899 12.9081 14.7838V20.4492H9.35204V8.99694H12.7658V10.562H12.8136C13.5097 9.3718 14.804 8.66093 16.1819 8.71208C19.7861 8.71208 20.4506 11.0828 20.4506 14.167L20.4491 20.4495ZM5.33963 7.4315C4.19992 7.43171 3.27584 6.50794 3.27564 5.36821C3.27544 4.22848 4.19918 3.30438 5.33889 3.30417C6.4786 3.30397 7.40268 4.22774 7.40288 5.36747C7.40298 5.91478 7.18566 6.43973 6.79872 6.82681C6.41179 7.21389 5.88694 7.4314 5.33963 7.4315ZM7.11765 20.4495H3.5579V8.99694H7.11765V20.4495ZM22.222 0.00178957H1.77099C0.804431 -0.00911825 0.0117963 0.765131 0 1.7317V22.268C0.0113924 23.235 0.803963 24.01 1.77099 23.9999H22.222C23.1909 24.0119 23.9866 23.2369 24 22.268V1.73022C23.9862 0.761739 23.1904 -0.0124652 22.222 0.000152051" fill="#4F6173"/>
<path fill-rule="evenodd" clip-rule="evenodd" d="M46.8378 12C46.8378 8.59671 49.5967 5.83784 53 5.83784C56.4033 5.83784 59.1622 8.59671 59.1622 12C59.1622 15.4033 56.4033 18.1622 53 18.1622C49.5967 18.1622 46.8378 15.4033 46.8378 12ZM53 16C50.7908 16 49 14.2092 49 12C49 9.79085 50.7908 8 53 8C55.2091 8 57 9.79085 57 12C57 14.2092 55.2091 16 53 16Z" fill="#4F6173"/>
<path d="M59.4056 7.03436C60.2009 7.03436 60.8456 6.38968 60.8456 5.59438C60.8456 4.79909 60.2009 4.15436 59.4056 4.15436C58.6104 4.15436 57.9656 4.79909 57.9656 5.59438C57.9656 6.38968 58.6104 7.03436 59.4056 7.03436Z" fill="#4F6173"/>
<path fill-rule="evenodd" clip-rule="evenodd" d="M53 0C49.741 0 49.3323 0.0138139 48.0524 0.0722133C46.7752 0.13047 45.9028 0.333343 45.1395 0.630008C44.3504 0.936629 43.6812 1.34695 43.0141 2.01406C42.3469 2.68123 41.9366 3.35044 41.63 4.13954C41.3333 4.90283 41.1305 5.77516 41.0722 7.05242C41.0138 8.33234 41 8.741 41 12C41 15.259 41.0138 15.6677 41.0722 16.9476C41.1305 18.2248 41.3333 19.0972 41.63 19.8605C41.9366 20.6496 42.3469 21.3188 43.0141 21.9859C43.6812 22.6531 44.3504 23.0634 45.1395 23.37C45.9028 23.6667 46.7752 23.8695 48.0524 23.9278C49.3323 23.9862 49.741 24 53 24C56.259 24 56.6677 23.9862 57.9476 23.9278C59.2248 23.8695 60.0972 23.6667 60.8605 23.37C61.6496 23.0634 62.3188 22.6531 62.9859 21.9859C63.6531 21.3188 64.0634 20.6496 64.37 19.8605C64.6667 19.0972 64.8695 18.2248 64.9278 16.9476C64.9862 15.6677 65 15.259 65 12C65 8.741 64.9862 8.33234 64.9278 7.05242C64.8695 5.77516 64.6667 4.90283 64.37 4.13954C64.0634 3.35044 63.6531 2.68123 62.9859 2.01406C62.3188 1.34695 61.6496 0.936629 60.8605 0.630008C60.0972 0.333343 59.2248 0.13047 57.9476 0.0722133C56.6677 0.0138139 56.259 0 53 0ZM53 2.16216C56.2041 2.16216 56.5837 2.1744 57.849 2.23213C59.019 2.28548 59.6544 2.48097 60.0773 2.64531C60.6374 2.863 61.0371 3.12303 61.457 3.54297C61.877 3.96287 62.137 4.36261 62.3547 4.92274C62.519 5.34559 62.7145 5.98098 62.7679 7.15097C62.8256 8.41632 62.8378 8.79587 62.8378 12C62.8378 15.2041 62.8256 15.5837 62.7679 16.849C62.7145 18.019 62.519 18.6544 62.3547 19.0773C62.137 19.6374 61.877 20.0371 61.457 20.457C61.0371 20.877 60.6374 21.137 60.0773 21.3547C59.6544 21.519 59.019 21.7145 57.849 21.7679C56.5839 21.8256 56.2044 21.8378 53 21.8378C49.7956 21.8378 49.4162 21.8256 48.151 21.7679C46.981 21.7145 46.3456 21.519 45.9227 21.3547C45.3626 21.137 44.9629 20.877 44.543 20.457C44.1231 20.0371 43.863 19.6374 43.6453 19.0773C43.481 18.6544 43.2855 18.019 43.2321 16.849C43.1744 15.5837 43.1622 15.2041 43.1622 12C43.1622 8.79587 43.1744 8.41632 43.2321 7.15097C43.2855 5.98098 43.481 5.34559 43.6453 4.92274C43.863 4.36261 44.123 3.96287 44.543 3.54297C44.9629 3.12303 45.3626 2.863 45.9227 2.64531C46.3456 2.48097 46.981 2.28548 48.151 2.23213C49.4163 2.1744 49.7959 2.16216 53 2.16216Z" fill="#4F6173"/>
<path fill-rule="evenodd" clip-rule="evenodd" d="M83.6499 10.6351C90.0923 7.86395 94.3883 6.03704 96.5378 5.15437C102.675 2.63416 103.95 2.19637 104.781 2.18192C104.964 2.17874 105.373 2.22347 105.638 2.43558C105.861 2.61469 105.923 2.85663 105.952 3.02645C105.982 3.19626 106.018 3.58309 105.989 3.88536C105.657 7.33533 104.218 15.7075 103.486 19.5715C103.176 21.2065 102.566 21.7547 101.975 21.8084C100.692 21.925 99.7174 20.9711 98.4744 20.1666C96.5294 18.9079 95.4305 18.1243 93.5425 16.8959C91.3606 15.4764 92.7751 14.6962 94.0185 13.4211C94.344 13.0874 99.9985 8.00968 100.108 7.54905C100.122 7.49144 100.134 7.2767 100.005 7.16331C99.8759 7.04992 99.6851 7.08869 99.5475 7.11953C99.3524 7.16324 96.2452 9.19087 90.2258 13.2024C89.3439 13.8003 88.545 14.0916 87.8292 14.0764C87.0402 14.0596 85.5223 13.6359 84.394 13.2738C83.01 12.8296 81.91 12.5948 82.0058 11.8405C82.0557 11.4476 82.6037 11.0458 83.6499 10.6351Z" fill="#4F6173"/>
<path d="M144.543 6.97889C144.558 7.19587 144.558 7.41285 144.558 7.63184C144.558 14.3043 139.605 21.9998 130.548 21.9998V21.9958C127.872 21.9998 125.252 21.2138 123 19.7319C123.389 19.7799 123.78 19.8039 124.172 19.8049C126.389 19.8069 128.543 19.044 130.287 17.6391C128.18 17.5981 126.333 16.1892 125.687 14.1323C126.425 14.2783 127.186 14.2483 127.91 14.0454C125.613 13.5694 123.96 11.4995 123.96 9.09573C123.96 9.07373 123.96 9.05273 123.96 9.03173C124.645 9.4227 125.411 9.63969 126.195 9.66369C124.032 8.1808 123.365 5.22902 124.671 2.92119C127.171 6.07596 130.86 7.99381 134.819 8.1968C134.422 6.44293 134.964 4.60507 136.244 3.37216C138.227 1.4603 141.346 1.5583 143.21 3.59114C144.313 3.36816 145.37 2.95319 146.337 2.36523C145.969 3.53415 145.2 4.52707 144.172 5.15802C145.148 5.04003 146.102 4.77205 147 4.36308C146.339 5.37901 145.506 6.26394 144.543 6.97889Z" fill="#4F6173"/>
</svg>
